<?xml version="1.0" encoding="UTF-8" standalone="no"?>
<!-- Uploaded to: SVG Repo, www.svgrepo.com, Generator: SVG Repo Mixer Tools -->

<svg
   fill="#000000"
   width="64"
   height="64"
   viewBox="0 0 153.6 153.6"
   version="1.1"
   id="svg1"
   sodipodi:docname="keyboard-shortcuts-svgrepo-com.svg"
   inkscape:version="1.4.2 (ebf0e940d0, 2025-05-08)"
   xmlns:inkscape="http://www.inkscape.org/namespaces/inkscape"
   xmlns:sodipodi="http://sodipodi.sourceforge.net/DTD/sodipodi-0.dtd"
   xmlns="http://www.w3.org/2000/svg"
   xmlns:svg="http://www.w3.org/2000/svg">
  <defs
     id="defs1" />
  <sodipodi:namedview
     id="namedview1"
     pagecolor="#ffffff"
     bordercolor="#000000"
     borderopacity="0.25"
     inkscape:showpageshadow="2"
     inkscape:pageopacity="0.0"
     inkscape:pagecheckerboard="0"
     inkscape:deskcolor="#d1d1d1"
     inkscape:zoom="8.49"
     inkscape:cx="27.738516"
     inkscape:cy="33.627797"
     inkscape:window-width="1916"
     inkscape:window-height="1058"
     inkscape:window-x="0"
     inkscape:window-y="20"
     inkscape:window-maximized="1"
     inkscape:current-layer="svg1">
    <inkscape:page
       x="0"
       y="0"
       width="153.60001"
       height="153.60001"
       id="page2"
       margin="0"
       bleed="0" />
  </sodipodi:namedview>
  <path
     d="m 144.56472,118.85628 c 0,2.48472 -2.02391,4.51759 -4.5176,4.51759 H 13.552876 c -2.493761,0 -4.5175996,-2.03287 -4.5175996,-4.51759 V 56.18519 c 0,-2.484639 2.0238386,-4.5176 4.5175996,-4.5176 H 140.04697 c 2.49376,0 4.51759,2.032961 4.51759,4.5176 v 62.67109 z m -4.5176,-76.223969 H 81.706161 c 1.19264,-6.9572 5.276642,-9.080482 10.670721,-11.773042 7.146879,-3.568879 16.046648,-8.02328 16.046648,-24.3681585 h -9.035288 c 0,10.7610395 -4.635116,13.0740805 -11.0592,16.2906395 -6.42408,3.207519 -14.203524,7.219199 -15.721444,19.850561 H 13.552955 c -7.4722389,0 -13.5529589870144,6.0808 -13.5529589870144,13.552879 v 62.67109 c 0,7.47216 6.0807995870144,13.55296 13.5529589870144,13.55296 H 140.04705 c 7.47222,0 13.55295,-6.0808 13.55295,-13.55296 V 56.18519 c 0,-7.47216 -6.0808,-13.552879 -13.55295,-13.552879 z"
     fill-rule="evenodd"
     id="path1"
     style="display:inline;fill:#f2f2f2;fill-opacity:1;stroke:none;stroke-width:2.4;stroke-dasharray:none;stroke-opacity:1"
     sodipodi:nodetypes="cssssssscccccccccssssssscc"
     sodipodi:insensitive="true" />
  <path
     fill-rule="evenodd"
     clip-rule="evenodd"
     d="m 44.902666,72.804694 c 0,-4.175226 -3.384695,-7.559844 -7.559842,-7.559844 -4.175147,0 -7.559842,3.384617 -7.559842,7.559844 v 7.559844 H 22.22314 c -4.175147,0 -7.559842,3.38454 -7.559842,7.559839 0,4.175299 3.384695,7.55984 7.559842,7.55984 h 7.559842 v 7.559843 c 0,4.1753 3.384695,7.55985 7.559842,7.55985 4.175147,0 7.559842,-3.38454 7.559842,-7.55985 v -7.559843 h 7.559842 c 4.175147,0 7.559842,-3.384541 7.559842,-7.55984 0,-4.175299 -3.384695,-7.559839 -7.559842,-7.559839 h -7.559842 z m 60.478714,11.339761 c 0,6.262572 -5.07717,11.339762 -11.339744,11.339762 -6.262577,0 -11.339763,-5.07719 -11.339763,-11.339762 0,-6.262572 5.077186,-11.339761 11.339763,-11.339761 6.262574,0 11.339744,5.077191 11.339744,11.339761 z m 18.89964,11.339762 c 6.26257,0 11.33976,-5.07719 11.33976,-11.339762 0,-6.262572 -5.07719,-11.339761 -11.33976,-11.339761 -6.26259,0 -11.33978,5.077191 -11.33978,11.339761 0,6.262572 5.07719,11.339762 11.33978,11.339762 z"
     fill="#000000"
     id="path1-5"
     style="display:none;fill:#f2f2f2;fill-opacity:1;stroke:none;stroke-width:2.4;stroke-dasharray:none;stroke-opacity:1"
     sodipodi:nodetypes="ssscssscssscssscsssssssssss"
     inkscape:label="g" />
  <path
     d="M 94.854506,93.175791 H 58.745574 c -2.491539,0 -4.513576,2.022118 -4.513576,4.513577 v 9.027322 c 0,2.49145 2.022037,4.51357 4.513576,4.51357 h 36.108932 c 2.491549,0 4.513586,-2.02212 4.513586,-4.51357 v -9.027322 c 0,-2.491459 -2.022037,-4.513577 -4.513586,-4.513577 m 27.081784,0 h -9.02724 c -2.49153,0 -4.51358,2.022118 -4.51358,4.513577 v 9.027322 c 0,2.49145 2.02205,4.51357 4.51358,4.51357 h 9.02714 c 2.49163,0 4.51367,-2.02212 4.51367,-4.51357 v -9.027322 c 0,-2.491459 -2.02204,-4.513577 -4.51357,-4.513577 m -81.245181,0 h -9.027393 c -2.491538,0 -4.513576,2.022118 -4.513576,4.513577 v 9.027322 c 0,2.49145 2.022038,4.51357 4.513576,4.51357 h 9.027233 c 2.491539,0 4.513576,-2.02212 4.513576,-4.51357 v -9.027322 c 0,-2.491459 -2.022037,-4.513577 -4.513576,-4.513577 m 0,-27.081778 h -9.027153 c -2.491618,0 -4.513656,2.022197 -4.513656,4.513576 v 9.027313 c 0,2.491539 2.022038,4.513577 4.513576,4.513577 h 9.027233 c 2.491539,0 4.513576,-2.022038 4.513576,-4.513577 v -9.027233 c 0,-2.491539 -2.022037,-4.513576 -4.513576,-4.513576 m 18.054545,18.054466 h 9.027154 c 2.491618,0 4.513656,-2.022198 4.513656,-4.513657 v -9.027233 c 0,-2.491539 -2.022038,-4.513576 -4.513576,-4.513576 h -9.027154 c -2.491539,0 -4.513576,2.022037 -4.513576,4.513576 v 9.027233 c 0,2.491539 2.022037,4.513577 4.513576,4.513577 M 94.854506,66.094013 h -9.027154 c -2.491618,0 -4.513656,2.022197 -4.513656,4.513576 v 9.027313 c 0,2.491539 2.022038,4.513577 4.513577,4.513577 h 9.027233 c 2.491549,0 4.513586,-2.022038 4.513586,-4.513577 v -9.027233 c 0,-2.491539 -2.022037,-4.513576 -4.513586,-4.513576 m 27.081784,0 h -9.02724 c -2.49153,0 -4.51358,2.022037 -4.51358,4.513576 v 9.027233 c 0,2.491539 2.02205,4.513577 4.51358,4.513577 h 9.02714 c 2.49163,0 4.51367,-2.022038 4.51367,-4.513577 v -9.027233 c 0,-2.491539 -2.02204,-4.513576 -4.51357,-4.513576"
     style="display:inline;fill:#f2f2f2;fill-opacity:1;fill-rule:evenodd;stroke:none;stroke-width:2.4;stroke-dasharray:none;stroke-opacity:1"
     id="path1-2"
     inkscape:label="k" />
</svg>
